<svg xmlns="http://www.w3.org/2000/svg" viewBox="0 0 760 180" role="img" aria-labelledby="title desc">
  <title id="title">Emotion Engine extended logo</title>
  <desc id="desc">Emotion Engine wordmark with an edge-to-edge emotional state curve mark.</desc>
  <rect width="760" height="180" rx="28" fill="#FFFFFF"/>
  <g transform="translate(38 26)">
    <defs>
      <clipPath id="logoMarkClip">
        <rect width="128" height="128" rx="28"/>
      </clipPath>
    </defs>
    <rect width="128" height="128" rx="28" fill="#101820"/>
    <g clip-path="url(#logoMarkClip)">
      <path d="M-8 88 C8 85 18 78 30 76 C45 72 52 45 68 64 C82 80 94 74 104 53 C111 39 122 38 136 44" fill="none" stroke="#5FE1B5" stroke-width="9" stroke-linecap="round"/>
    </g>
    <circle cx="30" cy="76" r="9" fill="#FF6B6B"/>
    <circle cx="68" cy="64" r="9" fill="#FFD166"/>
    <circle cx="104" cy="53" r="9" fill="#6AA7FF"/>
  </g>
  <text x="198" y="82" fill="#101820" font-family="Inter, ui-sans-serif, system-ui, -apple-system, BlinkMacSystemFont, Segoe UI, sans-serif" font-size="42" font-weight="760" letter-spacing="0">Emotion Engine</text>
  <text x="200" y="124" fill="#4E5D66" font-family="Inter, ui-sans-serif, system-ui, -apple-system, BlinkMacSystemFont, Segoe UI, sans-serif" font-size="21" font-weight="500" letter-spacing="0">Emotional continuity for LLM agents</text>
  <path d="M200 144 H568" stroke="#E4EAEE" stroke-width="2" stroke-linecap="round"/>
  <circle cx="604" cy="144" r="5" fill="#FF6B6B"/>
  <circle cx="626" cy="144" r="5" fill="#FFD166"/>
  <circle cx="648" cy="144" r="5" fill="#6AA7FF"/>
</svg>
